Coordinates
version=1
nRows=22
nColumns=24
inDegrees=yes

Units are S.I. units (second, meters, Newtons, ...)
Angles are in degrees.

endheader
time	pelvis_tilt	pelvis_list	pelvis_rotation	pelvis_tx	pelvis_ty	pelvis_tz	hip_flexion_r	hip_adduction_r	hip_rotation_r	knee_angle_r	ankle_angle_r	subtalar_angle_r	mtp_angle_r	hip_flexion_l	hip_adduction_l	hip_rotation_l	knee_angle_l	ankle_angle_l	subtalar_angle_l	mtp_angle_l	lumbar_extension	lumbar_bending	lumbar_rotation
      3.71000000	     59.34148113	      3.20605281	     -1.91086380	      0.55838700	      1.00046552	     -0.29012557	     -0.03643845	    -15.95060884	     11.04805462	    -58.15460742	     -6.61385851	      8.14168536	    -48.80201093	     -3.81310385	     -7.96264055	      1.77773899	    -54.55150523	      2.79374674	      9.95476223	    -44.77950169	      0.00000000	      0.00000000	      0.00000000
      3.72000000	     59.24349291	      3.21692237	     -1.87449396	      0.55844254	      1.00013065	     -0.29012656	      0.07993782	    -15.88810063	     10.94474280	    -57.96621281	     -6.59576193	      8.25284041	    -48.70374819	     -3.54613148	     -7.96964019	      1.75837968	    -54.79235135	      2.07813052	      9.90865603	    -43.51788694	      0.00000000	      0.00000000	      0.00000000
      3.73000000	     59.13062295	      3.23136921	     -1.84436750	      0.55846106	      0.99992283	     -0.29009807	      0.22441677	    -15.81713704	     10.82886647	    -57.80589487	     -6.59166162	      8.36389087	    -48.53022981	     -3.21173099	     -7.97099059	      1.73703762	    -55.12144009	      1.19886002	      9.85406008	    -41.78353697	      0.00000000	      0.00000000	      0.00000000
      3.74000000	     59.02509380	      3.25109776	     -1.82518967	      0.55836336	      1.00009040	     -0.29008739	      0.37616582	    -15.73249219	     10.69578213	    -57.68053810	     -6.59685050	      8.46703994	    -48.28534468	     -2.84820558	     -7.96562621	      1.70884159	    -55.52250093	      0.25142755	      9.80256890	    -39.73052853	      0.00000000	      0.00000000	      0.00000000
      3.75000000	     58.93929124	      3.27272216	     -1.81359714	      0.55820480	      1.00043026	     -0.29007170	      0.51767365	    -15.63952815	     10.54937136	    -57.58585189	     -6.60444366	      8.55723986	    -47.98248964	     -2.49754164	     -7.95905452	      1.67351132	    -55.95291901	     -0.66445559	      9.76112324	    -37.54669300	      0.00000000	      0.00000000	      0.00000000
      3.76000000	     58.87687023	      3.28964320	     -1.80192628	      0.55810222	      1.00055404	     -0.29003624	      0.63656361	    -15.54829109	     10.39972223	    -57.50873346	     -6.60795474	      8.63282357	    -47.64478407	     -2.19728979	     -7.95811653	      1.63495108	    -56.35138135	     -1.46230115	      9.73159844	    -35.42966611	      0.00000000	      0.00000000	      0.00000000
      3.77000000	     58.83727878	      3.29806058	     -1.78574577	      0.55808920	      1.00040688	     -0.29000903	      0.72559428	    -15.46359565	     10.25615133	    -57.43376650	     -6.60383141	      8.69494286	    -47.30255013	     -1.97231593	     -7.96487143	      1.59826394	    -56.66153456	     -2.08725454	      9.71186972	    -33.56150132	      0.00000000	      0.00000000	      0.00000000
      3.78000000	     58.81717506	      3.29984556	     -1.76706594	      0.55811109	      1.00021261	     -0.29000807	      0.78160146	    -15.38289480	     10.12336024	    -57.34865548	     -6.59275413	      8.74629862	    -46.98859838	     -1.83226851	     -7.97613033	      1.56747566	    -56.85432565	     -2.52503407	      9.69733246	    -32.08537668	      0.00000000	      0.00000000	      0.00000000
      3.79000000	     58.81155217	      3.29992515	     -1.75092650	      0.55811869	      1.00014096	     -0.29001771	      0.80537190	    -15.30110621	     10.00242280	    -57.24717743	     -6.57921844	      8.78998951	    -46.73257885	     -1.77251510	     -7.98682768	      1.54438854	    -56.93430781	     -2.79691998	      9.68228184	    -31.08799985	      0.00000000	      0.00000000	      0.00000000
      3.80000000	     58.81595654	      3.30196231	     -1.74041861	      0.55811522	      1.00019838	     -0.29001157	      0.80191320	    -15.21592998	      9.89343902	    -57.12982308	     -6.56984981	      8.82921705	    -46.55575498	     -1.77593156	     -7.99330243	      1.52846222	    -56.93002093	     -2.94502151	      9.66112561	    -30.59064597	      0.00000000	      0.00000000	      0.00000000
      3.81000000	     58.82676423	      3.30696393	     -1.73494573	      0.55811918	      1.00030451	     -0.28999273	      0.77996368	    -15.12939806	      9.79676247	    -57.00236102	     -6.57117927	      8.86774331	    -46.46731157	     -1.81742362	     -7.99502114	      1.51794723	    -56.87820756	     -3.01565460	      9.62960092	    -30.55035202	      0.00000000	      0.00000000	      0.00000000
      3.82000000	     58.84019091	      3.31426426	     -1.73152308	      0.55813141	      1.00039528	     -0.28998267	      0.75068300	    -15.04586776	      9.71243167	    -56.87308548	     -6.58742565	      8.91018589	    -46.46291935	     -1.87056892	     -7.99391028	      1.51116861	    -56.81090882	     -3.04724116	      9.58598455	    -30.87090950	      0.00000000	      0.00000000	      0.00000000
      3.83000000	     58.85168186	      3.32275020	     -1.72677541	      0.55814481	      1.00045955	     -0.28998534	      0.72573908	    -14.96908636	      9.63920840	    -56.75019353	     -6.61883017	      8.96142498	    -46.52579827	     -1.91412376	     -7.99232566	      1.50706559	    -56.74931885	     -3.06495785	      9.53196067	    -31.42142573	      0.00000000	      0.00000000	      0.00000000
      3.84000000	     58.85601301	      3.33160571	     -1.71859033	      0.55815983	      1.00050632	     -0.28998659	      0.71467690	    -14.90038150	      9.57423680	    -56.64044045	     -6.66120797	      9.02532519	    -46.63001817	     -1.93616284	     -7.99153369	      1.50507209	    -56.70375505	     -3.08089048	      9.47268630	    -32.05888313	      0.00000000	      0.00000000	      0.00000000
      3.85000000	     58.84857711	      3.34053618	     -1.70714719	      0.55818080	      1.00053295	     -0.28997905	      0.72223579	    -14.83858593	      9.51355614	    -56.54897629	     -6.70700792	      9.10342487	    -46.74536455	     -1.93429517	     -7.99148597	      1.50473676	    -56.67689032	     -3.09725752	      9.41579437	    -32.65060645	      0.00000000	      0.00000000	      0.00000000
      3.86000000	     58.82783837	      3.34936540	     -1.69435910	      0.55820774	      1.00053126	     -0.28997198	      0.74747539	    -14.78154287	      9.45365021	    -56.47919952	     -6.74745907	      9.19402349	    -46.84282372	     -1.91293084	     -7.99162730	      1.50548467	    -56.66753244	     -3.11061874	      9.36953607	    -33.09288588	      0.00000000	      0.00000000	      0.00000000
      3.87000000	     58.79729010	      3.35741410	     -1.68200100	      0.55824000	      1.00050819	     -0.28997271	      0.78514586	    -14.72796943	      9.39335018	    -56.43208947	     -6.77502088	      9.29201369	    -46.89962637	     -1.87973050	     -7.99176748	      1.50662537	    -56.67332840	     -3.11583187	      9.34067242	    -33.32302687	      0.00000000	      0.00000000	      0.00000000
      3.88000000	     58.76447462	      3.36391644	     -1.67081430	      0.55827809	      1.00048225	     -0.28997618	      0.82754020	    -14.67775483	      9.33436193	    -56.40585398	     -6.78544383	      9.38984129	    -46.90287661	     -1.84274138	     -7.99221990	      1.50752968	    -56.69188738	     -3.10915067	      9.33279262	    -33.32351684	      0.00000000	      0.00000000	      0.00000000
      3.89000000	     58.73738919	      3.36893483	     -1.66106155	      0.55831811	      1.00046529	     -0.28997649	      0.86608369	    -14.63098705	      9.28010110	    -56.39651255	     -6.77892873	      9.47945858	    -46.85110351	     -1.80884329	     -7.99327293	      1.50786450	    -56.72064883	     -3.09016495	      9.34552484	    -33.11850452	      0.00000000	      0.00000000	      0.00000000
      3.90000000	     58.72121069	      3.37314081	     -1.65289635	      0.55835128	      1.00045842	     -0.28997402	      0.89328153	    -14.58759952	      9.23421977	    -56.39897804	     -6.76007373	      9.55442087	    -46.75354690	     -1.78321657	     -7.99463577	      1.50775457	    -56.75621515	     -3.06240249	      9.37476774	    -32.76408522	      0.00000000	      0.00000000	      0.00000000
      3.91000000	     58.71724691	      3.37705477	     -1.64623626	      0.55837201	      1.00045867	     -0.28997177	      0.90467787	    -14.54773642	      9.19960698	    -56.40798822	     -6.73670095	      9.61127412	    -46.62748208	     -1.76896517	     -7.99538253	      1.50781742	    -56.79391369	     -3.03255403	      9.41372841	    -32.33474218	      0.00000000	      0.00000000	      0.00000000
      3.92000000	     58.72363496	      3.38100911	     -1.64084836	      0.55838284	      1.00046334	     -0.28997229	      0.89975814	    -14.51192067	      9.17774035	    -56.41877715	     -6.71799805	      9.64988645	    -46.49426042	     -1.76666732	     -7.99444267	      1.50904593	    -56.82812989	     -3.00858862	      9.45439416	    -31.90862048	      0.00000000	      0.00000000	      0.00000000
